# xmcd
#
# Track frame offsets: 
#        187
#        19070
#        35172
#        52682
#        83482
#        96302
#        118347
#        132615
#        145050
#        158565
#
# Disc length: 2363 seconds
#
# Revision: 5
# Processed by: cddbd v1.5.2PL0 Copyright (c) Steve Scherf et al.
# Submitted via: ExactAudioCopyFreeDBPlugin 1.0
#
DISCID=8009390a
DTITLE=Alabama - M O U N T A I N   M U S I C     1 9 8 2
DYEAR=1982
DGENRE=Country Pop
TTITLE0=Mountain Music  1982
TTITLE1=Close Enough To Perfect  1982
TTITLE2=Words At Twenty Paces  1982
TTITLE3=Changes Comin' On  1982
TTITLE4=Green River  1982
TTITLE5=Take Me Down  1982
TTITLE6=You Turn Me On  1982
TTITLE7=Never Be One  1982
TTITLE8=Lovin' You Is Killin' Me  1982
TTITLE9=Gonna Have A Party  1982
EXTD=
EXTT0=
EXTT1=
EXTT2=
EXTT3=
EXTT4=
EXTT5=
EXTT6=
EXTT7=
EXTT8=
EXTT9=
PLAYORDER=
